<svg xmlns="http://www.w3.org/2000/svg" viewBox="0 0 926 587"><g fill="#474747" opacity=".2"><path d="M510 109h-62a3 3 0 010-6h59V75a3 3 0 016 0v31a3 3 0 01-3 3z"/><path d="M572 109h-62a3 3 0 01-3-3V75a3 3 0 016 0v28h59a3 3 0 010 6z"/><path d="M541 140h-62a3 3 0 01-3-3v-31a3 3 0 013-3h62a3 3 0 013 3v31a3 3 0 01-3 3zm-59-6h56v-25h-56z"/><path d="M527 171h-17a3 3 0 01-3-3v-31a3 3 0 013-3h62a3 3 0 010 6h-59v25h14a3 3 0 010 6z"/><path d="M510 171h-50a3 3 0 010-6h47v-25h-59a3 3 0 010-6h62a3 3 0 013 3v31a3 3 0 01-3 3z"/><path d="M479 140h-31a3 3 0 010-6h28v-25h-49a3 3 0 110-6h52a3 3 0 013 3v31a3 3 0 01-3 3zM585 140h-44a3 3 0 01-3-3v-31a3 3 0 013-3h21a3 3 0 010 6h-18v25h41a3 3 0 010 6z"/></g><g fill="#474747" opacity=".2"><path d="M86 362H24a3 3 0 110-6h59v-28a3 3 0 016 0v31a3 3 0 01-3 3z"/><path d="M148 362H86a3 3 0 01-3-3v-31a3 3 0 016 0v28h59a3 3 0 010 6z"/><path d="M117 393H55a3 3 0 01-3-3v-31a3 3 0 013-3h62a3 3 0 013 3v31a3 3 0 01-3 3zm-59-6h56v-25H58z"/><path d="M104 424H86a3 3 0 01-3-3v-31a3 3 0 013-3h62a3 3 0 010 6H89v25h15a3 3 0 010 6z"/><path d="M86 424H36a3 3 0 010-6h47v-25H24a3 3 0 110-6h62a3 3 0 013 3v31a3 3 0 01-3 3z"/><path d="M55 393H24a3 3 0 110-6h28v-25H3a3 3 0 010-6h52a3 3 0 013 3v31a3 3 0 01-3 3zM162 393h-45a3 3 0 01-3-3v-31a3 3 0 013-3h21a3 3 0 110 6h-18v25h42a3 3 0 110 6z"/></g><g fill="#474747" opacity=".2"><path d="M902 253h-62a3 3 0 01-3-3v-31a3 3 0 016 0v28h59a3 3 0 010 6z"/><path d="M840 253h-61a3 3 0 010-6h58v-28a3 3 0 016 0v31a3 3 0 01-3 3z"/><path d="M871 283h-62a3 3 0 01-3-3v-30a3 3 0 013-3h62a3 3 0 013 3v30a3 3 0 01-3 3zm-59-6h56v-24h-56z"/><path d="M840 314h-17a3 3 0 010-6h14v-25h-58a3 3 0 010-6h61a3 3 0 013 3v31a3 3 0 01-3 3z"/><path d="M864 314h-24a3 3 0 01-3-3v-31a3 3 0 013-3h62a3 3 0 010 6h-59v25h21a3 3 0 010 6z"/><path d="M902 283h-31a3 3 0 01-3-3v-30a3 3 0 013-3h52a3 3 0 110 6h-49v24h28a3 3 0 010 6zM809 283h-44a3 3 0 010-6h41v-24h-18a3 3 0 010-6h21a3 3 0 013 3v30a3 3 0 01-3 3z"/></g><path fill="#333" d="M871 538H44a5 5 0 110-10h827a5 5 0 010 10z"/><path fill="#cc6675" d="M606 29h104v154H606a12 12 0 01-12-12V41a12 12 0 0112-12z"/><path fill="#fee2ca" d="M814 183H710V29h104a12 12 0 0112 12v130a12 12 0 01-12 12z"/><path fill="#cc6675" d="M814 183H710V29h104a12 12 0 0112 12v130a12 12 0 01-12 12z"/><path fill="#333" d="M814 188H606a17 17 0 01-17-17V41a17 17 0 0117-17h208a17 17 0 0117 17v130a17 17 0 01-17 17zM606 34a7 7 0 00-7 7v130a7 7 0 007 7h208a7 7 0 007-7V41a7 7 0 00-7-7z"/><path fill="#333" d="M710 188H606a17 17 0 01-17-17V41a17 17 0 0117-17h104a5 5 0 015 5v154a5 5 0 01-5 5zM606 34a7 7 0 00-7 7v130a7 7 0 007 7h99V34z"/><path fill="#333" d="M710 188H606a17 17 0 01-17-17V41a17 17 0 0117-17h104a5 5 0 015 5v154a5 5 0 01-5 5zM606 34a7 7 0 00-7 7v130a7 7 0 007 7h99V34z"/><path fill="#f26b79" d="M611 45h83v121h-83z"/><path fill="#99675e" d="M611 158h83v9h-83zM611 45h83v10h-83z" opacity=".5" style="isolation:isolate"/><path fill="#333" d="M693 170h-82a4 4 0 01-4-4V45a4 4 0 014-4h82a4 4 0 014 4v121a4 4 0 01-4 4zm-78-8h74V49h-74zM814 188H710a5 5 0 01-5-5V29a5 5 0 015-5h104a17 17 0 0117 17v130a17 17 0 01-17 17zm-99-10h99a7 7 0 007-7V41a7 7 0 00-7-7h-99z"/><path fill="#f26b79" d="M726 45h83v121h-83z"/><path fill="#99675e" d="M726 158h83v9h-83zM726 45h83v10h-83z" opacity=".5" style="isolation:isolate"/><path fill="#333" d="M809 170h-83a4 4 0 01-4-4V45a4 4 0 014-4h83a4 4 0 014 4v121a4 4 0 01-4 4zm-79-8h75V49h-75zM672 126a5 5 0 01-5-5V85a5 5 0 0110 0v36a5 5 0 01-5 5z"/><path fill="#333" d="M746 126a5 5 0 01-5-5V85a5 5 0 0110 0v36a5 5 0 01-5 5z"/><circle cx="449.5" cy="61" r="56" fill="#ffe9bd" transform="rotate(-81 450 61)"/><path fill="#e2e2e2" d="M450 27a56 56 0 0154 45 56 56 0 10-109 0 56 56 0 0155-45z"/><path fill="#333" d="M450 122a61 61 0 1161-61 61 61 0 01-61 61zm0-112a51 51 0 1051 51 51 51 0 00-51-51z"/><path fill="#333" d="M450 110a49 49 0 1149-49 49 49 0 01-49 49zm0-92a43 43 0 1043 43 43 43 0 00-43-43z"/><path fill="#333" d="M474 64h-24a3 3 0 01-3-2l-15-29a3 3 0 116-2l13 27h23a3 3 0 010 6z"/><circle cx="449.5" cy="61" r="7.1" fill="#333"/><circle cx="724.6" cy="275.4" r="8.3" fill="#fff3e9"/><path fill="#333" d="M725 288a12 12 0 1112-13 12 12 0 01-12 13zm0-17a4 4 0 104 4 4 4 0 00-4-4z"/><path fill="#f29f4d" d="M748 343h67v190h-67z"/><path fill="#db8945" d="M748 522h67v11h-67zM748 343h67v13h-67z"/><path fill="#f4b47a" d="M564 302h251v41H564z"/><path fill="#db8945" d="M564 335h251v8H564z" opacity=".6" style="isolation:isolate"/><path fill="#f9c59b" d="M564 302h251v9H564z"/><path fill="#f29f4d" d="M564 438h92v95h-92z"/><path fill="#db8945" d="M564 522h92v11h-92z"/><path fill="#333" d="M656 538h-92a5 5 0 01-5-5V302a5 5 0 015-5h92a5 5 0 015 5v231a5 5 0 01-5 5zm-87-10h82V307h-82z"/><path fill="#333" d="M748 538h-92a5 5 0 01-5-5V302a5 5 0 015-5h92a5 5 0 015 5v231a5 5 0 01-5 5zm-87-10h82V307h-82z"/><path fill="#333" d="M815 538h-67a5 5 0 01-5-5V302a5 5 0 015-5h67a5 5 0 015 5v231a5 5 0 01-5 5zm-62-10h57V307h-57zM656 538h-92a5 5 0 01-5-5V343a5 5 0 015-5h92a5 5 0 015 5v190a5 5 0 01-5 5zm-87-10h82V348h-82z"/><path fill="#333" d="M656 538h-92a5 5 0 01-5-5v-95a5 5 0 015-5h92a5 5 0 015 5v95a5 5 0 01-5 5zm-87-10h82v-85h-82z"/><path fill="#f29f4d" d="M564 343h92v95h-92z"/><path fill="#db8945" d="M564 343h92v13h-92z"/><path fill="#333" d="M656 443h-92a5 5 0 01-5-5v-95a5 5 0 015-5h92a5 5 0 015 5v95a5 5 0 01-5 5zm-87-10h82v-85h-82z"/><path fill="#f29f4d" d="M656 343h92v190h-92z"/><path fill="#db8945" d="M656 522h92v11h-92zM656 343h92v13h-92z"/><path fill="#333" d="M748 538h-92a5 5 0 01-5-5V343a5 5 0 015-5h92a5 5 0 015 5v190a5 5 0 01-5 5zm-87-10h82V348h-82z"/><path fill="#f4b77f" d="M676 375h53v138h-53z"/><path fill="#f9c59b" d="M676 463l53-70v-18h-15l-38 50v38zM676 491l53-71v-13l-53 70v14zM676 510l53-70v-8l-53 70v8z" opacity=".4" style="isolation:isolate"/><path fill="#333" d="M729 516h-53a3 3 0 01-3-3V375a3 3 0 013-3h53a3 3 0 013 3v138a3 3 0 01-3 3zm-50-6h47V378h-47z"/><path fill="#f4b77f" d="M584 375h53v46h-53z"/><path fill="#f9c59b" d="M608 375l-24 32v14h5l35-46h-16zM607 421l30-40v-6h-6l-35 46h11z" opacity=".4" style="isolation:isolate"/><path fill="#333" d="M637 424h-53a3 3 0 01-3-3v-46a3 3 0 013-3h53a3 3 0 013 3v46a3 3 0 01-3 3zm-50-6h47v-40h-47zM815 538h-67a5 5 0 01-5-5V343a5 5 0 015-5h67a5 5 0 015 5v190a5 5 0 01-5 5zm-62-10h57V348h-57z"/><path fill="#f4b77f" d="M766 375h32v138h-32z"/><path fill="#f9c59b" d="M766 463l31-41v-38l-31 41v38zM766 485l31-41v-14l-31 41v14zM766 501l31-42v-7l-31 42v7z" opacity=".3" style="isolation:isolate"/><path fill="#333" d="M797 516h-31a3 3 0 01-3-3V375a3 3 0 013-3h31a3 3 0 013 3v138a3 3 0 01-3 3zm-28-6h25V378h-25zM564 538H348a5 5 0 01-5-5V302a5 5 0 015-5h216a5 5 0 015 5v231a5 5 0 01-5 5zm-211-10h206V307H353z"/><path fill="#f29f4d" d="M348 343h216v185H348z"/><path fill="#db8945" d="M348 517h216v10H348zM348 343h216v13H348z"/><path fill="#333" d="M564 532H348a5 5 0 01-5-5V343a5 5 0 015-5h216a5 5 0 015 5v184a5 5 0 01-5 5zm-211-10h206V348H353z"/><rect width="150.7" height="101" x="381" y="395" fill="#cfe5e8" rx="21"/><path fill="#a7e3e8" d="M517 416v59a7 7 0 01-7 7H402a7 7 0 01-7-7v-59a7 7 0 017-7h108a7 7 0 017 7z"/><path fill="#333" d="M510 500H402a25 25 0 01-25-25v-59a25 25 0 0125-25h108a25 25 0 0125 25v59a25 25 0 01-25 25zM402 399a17 17 0 00-17 17v59a17 17 0 0017 17h108a17 17 0 0017-17v-59a17 17 0 00-17-17zM496 374h-79a5 5 0 010-10h79a5 5 0 010 10z"/><path fill="#f4b47a" d="M348 302h216v41H348z"/><path fill="#db8945" d="M348 335h216v8H348z" opacity=".6" style="isolation:isolate"/><path fill="#f9c59b" d="M348 302h216v9H348z"/><path fill="#333" d="M564 348H348a5 5 0 01-5-5v-41a5 5 0 015-5h216a5 5 0 015 5v41a5 5 0 01-5 5zm-211-10h206v-31H353z"/><path fill="#333" d="M416 328h-47a6 6 0 010-12h47a6 6 0 010 12z"/><circle cx="495.6" cy="322.3" r="7.1" fill="#ea5050"/><path fill="#333" d="M496 331a9 9 0 119-9 9 9 0 01-9 9zm0-14a5 5 0 105 5 5 5 0 00-5-5z"/><circle cx="517.1" cy="322.3" r="7.1" fill="#7dc163"/><path fill="#333" d="M517 331a9 9 0 119-9 9 9 0 01-9 9zm0-14a5 5 0 105 5 5 5 0 00-5-5zM539 331a9 9 0 119-9 9 9 0 01-9 9zm0-14a5 5 0 105 5 5 5 0 00-5-5z"/><circle cx="538.6" cy="322.3" r="7.1" fill="#333"/><path fill="#fff3e9" d="M698 293c12 0 22-13 22-29h-44c0 16 10 29 22 29z"/><path fill="#c4cecd" d="M709 264c0 14-7 25-17 28a17 17 0 006 1c12 0 22-13 22-29z" opacity=".4" style="isolation:isolate"/><path fill="#333" d="M698 297c-14 0-26-15-26-33a4 4 0 014-4h44a4 4 0 014 4c0 18-11 33-26 33zm-18-29c1 12 9 21 18 21s17-9 18-21z"/><path fill="#333" d="M716 302h-36a5 5 0 010-10h36a5 5 0 010 10zM691 257a3 3 0 01-3-4l4-8a14 14 0 00-3-1c-2-1-6-2-6-6 0-3 3-8 5-10a3 3 0 015 3 34 34 0 00-3 6l1 1c3 1 7 2 7 6 0 5-4 11-5 12a3 3 0 01-2 1zM705 252a3 3 0 01-3-3 3 3 0 011-2l4-8a14 14 0 00-3-1c-3-1-6-2-6-5s3-9 4-11a3 3 0 015 4 34 34 0 00-3 6h2c2 1 7 2 7 7s-4 10-5 12a3 3 0 01-3 1zM695 219a3 3 0 01-3-3 3 3 0 010-1l3-6a3 3 0 016 2l-3 6a3 3 0 01-3 2z"/><path fill="#333" d="M815 348H564a5 5 0 01-5-5v-41a5 5 0 015-5h251a5 5 0 015 5v41a5 5 0 01-5 5zm-246-10h241v-31H569zM621 362h-22a4 4 0 010-8h22a4 4 0 010 8z"/><path fill="#f4b77f" d="M584 467h53v46h-53z"/><path fill="#f9c59b" d="M608 467l-24 32v14h5l35-46h-16zM607 513l30-40v-6h-6l-35 46h11z" opacity=".4" style="isolation:isolate"/><path fill="#333" d="M637 516h-53a3 3 0 01-3-3v-46a3 3 0 013-3h53a3 3 0 013 3v46a3 3 0 01-3 3zm-50-6h47v-40h-47zM621 456h-22a4 4 0 010-8h22a4 4 0 010 8zM693 362h-17a4 4 0 010-8h17a4 4 0 110 8zM779 362h-13a4 4 0 010-8h13a4 4 0 110 8z"/><rect width="81.5" height="10.6" x="414" y="291" fill="#333" rx="5.3"/><path fill="#fff3e9" d="M503 264l33-28-5-6-38 19 10 15z"/><path fill="#333" d="M503 269a4 4 0 01-1 0 5 5 0 01-3-2l-10-16a5 5 0 012-6 4 4 0 010-1l38-19a5 5 0 017 2l4 7a5 5 0 010 6l-34 28a5 5 0 01-3 1zm-3-18l4 6 24-20z"/><rect width="103.8" height="61.8" x="403" y="230" fill="#dbdddd" rx="18.5"/><path fill="#fff" d="M416 273v-25a18 18 0 0119-18h-13a18 18 0 00-19 18v25a18 18 0 0019 18h13a18 18 0 01-19-18z" opacity=".6" style="isolation:isolate"/><path fill="#c4cecd" d="M488 230h-18a18 18 0 0119 18v25a18 18 0 01-19 18h18a18 18 0 0019-18v-25a18 18 0 00-19-18z"/><path fill="#333" d="M488 296h-66a23 23 0 01-24-23v-25a23 23 0 0124-23h66a23 23 0 0124 23v25a23 23 0 01-24 23zm-66-61a13 13 0 00-14 13v25a13 13 0 0014 13h66a13 13 0 0014-13v-25a13 13 0 00-14-13z"/><path fill="#333" d="M390 251h13v14h-13z"/><path fill="#333" d="M403 270h-13a5 5 0 01-5-5v-14a5 5 0 015-5h13a5 5 0 015 5v14a5 5 0 01-5 5zm-8-10h3v-4h-3zM455 242a196 196 0 01-32-3c-8-1-17-4-17-10s9-9 17-11a222 222 0 0165 0c8 2 17 4 17 11s-9 9-17 10a196 196 0 01-33 3zm-33-13c7 1 18 3 33 3s27-2 34-3c-7-2-18-3-34-3s-26 1-33 3zm74 2z"/><rect width="19.7" height="24.7" x="445" y="205" fill="#333" rx="5"/><path fill="#333" d="M542 224a3 3 0 01-2-5l5-6-5-6a3 3 0 010-3l3-6a3 3 0 015 3l-2 4 5 6a3 3 0 010 4l-6 8a3 3 0 01-3 1z"/><path fill="#d7fff7" d="M432 482l56-73h-21l-56 73h21zM455 482l56-73h-11l-55 73z"/><path fill="#1d2f3d" d="M500 587h-79a5 5 0 010-10h79a5 5 0 010 10zM398 587h-12a5 5 0 010-10h12a5 5 0 010 10z"/><rect width="202" height="496" x="113" y="37" fill="#aecbd9" rx="12"/><path fill="#c4e7f4" d="M128 521V49c0-7 6-12 13-12h-15c-7 0-13 5-13 12v472c0 7 6 12 13 12h15c-7 0-13-5-13-12z"/><path fill="#8ca2ae" d="M303 37h-22a12 12 0 0112 12v472a12 12 0 01-12 12h22a12 12 0 0012-12V49a12 12 0 00-12-12z" opacity=".9" style="isolation:isolate"/><path fill="#333" d="M303 538H125a17 17 0 01-17-17V49a17 17 0 0117-17h178a17 17 0 0117 17v472a17 17 0 01-17 17zM125 42a7 7 0 00-7 7v472a7 7 0 007 7h178a7 7 0 007-7V49a7 7 0 00-7-7z"/><path fill="#333" d="M315 194H113a5 5 0 01-5-5V49a17 17 0 0117-17h178a17 17 0 0117 17v140a5 5 0 01-5 5zm-197-10h192V49a7 7 0 00-7-7H125a7 7 0 00-7 7z"/><path fill="#333" d="M141 160a5 5 0 01-5-5v-46a5 5 0 0110 0v46a5 5 0 01-5 5zM141 356a5 5 0 01-5-5v-84a5 5 0 0110 0v84a5 5 0 01-5 5z"/><path fill="#64809b" d="M113 189h202v27H113z"/><path fill="#8ca2ae" d="M292 189h23v27h-23z" opacity=".7" style="isolation:isolate"/><path fill="#64809b" d="M113 189h15v27h-15z" opacity=".3" style="isolation:isolate"/><path fill="#333" d="M315 221H113a5 5 0 01-5-5v-27a5 5 0 015-5h202a5 5 0 015 5v27a5 5 0 01-5 5zm-197-10h192v-17H118z"/><path fill="#333" d="M252 206h-77a3 3 0 010-6h77a3 3 0 010 6z"/></svg>