<svg xmlns="http://www.w3.org/2000/svg" viewBox="0 0 1000 277"><path fill="#99CA3C" d="M332 184v-30-2l-1-1h-5l-2 2v62c0 3 0 3-3 3h-3l-2-2v-2-59c0-3 1-3-3-3-3 0-3 0-3 4l-2 26-1 18-1 15c0 2 0 4 2 5 5 6 8 12 12 19l3 12-1 24c0 2 0 2-1 1-19-3-33-12-43-28a61 61 0 01-9-36v-26c0-15 4-28 13-40 9-11 20-19 34-22 25-5 44 3 60 22 7 10 11 21 13 33v35c0 15-4 28-13 39-9 12-21 20-36 23l-4 1c-2-1-1-3-1-5l-1-8v-15c-1-5 1-10 3-14l4-6c7-5 11-12 10-21l-1-14-1-13-1-15-2-12-1-1c-5-1-5-1-5 4v60l-1 1h-6l-1-1v-2-31z"/><path fill="#C1CD35" d="M466 125l-4 9c-1 9 0 18 5 25s13 10 21 8h1v3c2 12 13 17 23 11 2-1 2-1 3 1l7 3c2 0 2 0 2 2l1 19c-1 9-3 17-7 25a76 76 0 01-70 46h-26c-4 0-6-2-6-6v-60-82c0-5 1-7 7-6h25c6 0 11 0 17 2h1z"/><path fill="#F5EE36" d="M733 200v73c0 2-1 4-4 4h-24c-5 0-6-2-6-6v-51-1l-2-2h-37-1c-2 0-2 0-2 2l1 1v52c-1 3-2 5-5 5h-26c-2 0-4-2-4-4v-3-141-2c0-3 2-4 4-4h27c2 0 3 1 4 4v53c0 2-1 2 2 2h38l1-1v-2-50-3c0-2 1-3 3-3h28c2 0 3 1 4 3v3l-1 71z"/><path fill="#FECB38" d="M884 173v41c0 15-5 29-15 41-9 11-21 19-36 21-25 4-47-8-59-28-7-11-10-22-10-34v-85-2c0-3 2-4 5-5h24c5 0 6 2 6 6v85l1 8c2 8 6 15 14 19s18 2 25-4c6-5 9-11 10-19v-5-83c0-5 2-7 6-7h24c3 1 5 2 5 5v46z"/><path fill="#74C043" d="M242 198v17c-1 21-9 39-26 51-7 6-15 9-23 10l-2-1-1-13-1-19c0-6 2-11 6-15 8-8 13-16 16-26 3-14 0-28-9-39-2-4-5-7-10-9-7-4-16-3-23 3l-8 11c-5 9-7 19-7 29 0 6 1 13 4 19 2 4 5 7 10 10l6 7c3 4 4 9 4 14v27c0 3 0 3-3 3a61 61 0 01-51-49l-2-15v-28c0-14 4-26 12-38 8-11 19-19 33-22 23-6 44 0 60 19 9 10 13 22 15 35v19z"/><path fill="#FCB530" d="M978 200l6 4c10 8 16 19 16 32 0 12-5 21-13 29-7 7-15 11-25 12h-47c-3 0-5-2-5-5v-2-141-1c0-4 2-5 6-5h43c20 0 37 15 40 34a41 41 0 01-19 42l-2 1z"/><path fill="#4DB848" d="M0 200v-72-2c0-2 2-3 4-3l2-1h84c3 1 5 2 5 5v26c0 3-2 4-5 4H38h-1c-2 0-2 0-2 2v21c0 2 0 2 2 2h38c2 1 3 2 4 5v25c0 3-2 5-6 5H38h-1c-2 0-3 0-3 2v52c1 4-1 6-5 6H5c-3 0-5-2-5-6v-71z"/><path d="M337 42v36c0 3-2 4-4 5h-16c-4 0-5-2-5-5V60v-2l-3-3c-2 0-3 0-4 2l-1 1-8 15-5 2h-6l-4-2-9-14-1-2-4-1-2 3v19c0 3-2 4-5 4h-16c-3 0-4-1-4-4V29 6c0-3 1-4 4-4h15c2 0 4 1 5 3l20 33c3 4 6 4 8 0l20-33c1-2 3-3 5-3h13c6 0 7 1 6 6v34h1zM474 42v37c0 2-1 3-3 3l-18 1c-2 0-3-2-3-3l-1-3V60v-2l-2-3-4 1-1 2-8 14c-2 2-3 3-6 3h-5c-2 0-4 0-5-2l-8-14-1-2-4-1c-1 1-2 1-2 3v19l-1 2-3 2h-17c-3 0-4-1-4-3v-2V7 6c0-3 1-4 4-4h15c2 0 4 1 5 3l20 33c3 5 6 4 8 0l20-33c1-2 3-3 5-3h15c3 0 4 1 4 4v36zM712 42v37c0 2-1 3-3 3h-18l-3-1-15-18-7-9c-2-3-5-2-6 0l-1 3v22c0 2-1 4-4 4h-18c-3 0-4-2-4-4v-2V7 6c0-3 1-4 4-4h15l5 2 18 21 4 5c1 2 3 3 4 2 2-1 3-2 3-4V8 6c0-3 1-4 3-4h18c4 0 5 1 5 5v35zM112 42c0-19 12-35 31-40 13-3 26-3 38 4 14 7 21 19 22 35 0 20-12 37-33 42-12 3-23 2-34-3-15-7-24-21-24-38zM514 29V7 5c0-2 2-3 4-3h20c2 0 3 1 3 3v41l2 9c1 5 5 7 11 7 5 0 9-2 11-7l1-9V8 6c0-3 1-4 4-4h19c2 0 4 1 4 4v43c0 7-2 13-5 19-5 8-12 12-21 15-9 2-19 2-29-1-13-4-20-13-23-27l-1-9V29zM45 0c9 1 16 2 23 5l10 8c3 2 3 4 0 6L68 29c-3 2-4 2-7 0-4-5-9-7-15-7-10 0-17 7-18 17-1 4 0 8 1 11 2 7 8 12 16 12 6 1 12-1 16-6 2-2 5-2 7 0l10 9c2 3 2 4 0 7-6 6-13 9-21 11-11 2-22 2-33-3C10 74 2 63 1 47A41 41 0 0133 2c5-2 9-2 12-2zM942 67V56l-1-5-25-42-1-2c-2-2 0-5 3-5h19c2 0 4 1 5 3l11 18 1 2c1 2 4 2 5 0l2-2 11-18c1-2 2-3 4-3h16c4 0 6 3 4 6a6025 6025 0 01-27 48v23c0 2-1 3-4 3h-19c-3 1-4-1-4-4V67zM852 2h32c4 0 5 1 5 5v12c0 2-1 4-4 4h-15c-3 0-5 2-5 5v51c0 2-1 3-4 4h-18c-4 0-5-2-5-6V29v-2c0-3-1-4-4-4h-15c-3 0-5-1-5-4V6c0-3 2-4 5-4h33zM753 42V7c0-4 1-5 5-5h17c4 0 5 1 5 5v72c0 2-1 3-4 4h-20c-2 0-3-2-3-5V50v-8z"/><path fill="#C1CD35" d="M488 151c-4 0-7-1-9-4-3-4-2-7 1-10s8-5 12-4c3 0 5 2 6 5 2 6-2 12-8 13h-2zM515 148c3 0 6 2 6 6 0 3-3 6-7 6-3 0-6-3-6-6 0-4 2-6 7-6z"/><path fill="#C1CD36" d="M510 133c2 0 4 2 4 4s-2 4-4 4c-3 0-5-1-5-4 0-2 2-4 5-4z"/><path fill="#FFF" d="M939 163v-13c0-2 0-2 2-2h18c4 0 7 2 10 6 4 5 4 16-2 21-2 2-4 4-8 4h-18c-2 0-2 0-2-2v-14zM939 232v-13c0-2 0-2 2-2h19c4 0 6 2 8 5 5 5 5 17-1 23-2 2-5 3-7 3h-20l-1-2v-14zM139 42l2-8a17 17 0 0133 0c2 5 2 11 0 16-3 8-10 13-18 12-8 0-14-6-16-14l-1-6z"/></svg>